<svg width="800" height="520" viewBox="0 0 800 520" fill="none" xmlns="http://www.w3.org/2000/svg">
  <rect width="800" height="520" rx="32" fill="#F8F1E8"/>
  <rect x="60" y="80" width="680" height="360" rx="28" fill="#FFF9F2" stroke="#E6DED4" stroke-width="2"/>
  <rect x="110" y="150" width="310" height="210" rx="16" fill="#FFFFFF" stroke="#E8DFD5" stroke-width="2"/>
  <rect x="140" y="185" width="250" height="18" rx="9" fill="#E6DED4"/>
  <rect x="140" y="220" width="210" height="14" rx="7" fill="#EFE7DD"/>
  <rect x="140" y="248" width="180" height="14" rx="7" fill="#EFE7DD"/>
  <rect x="140" y="276" width="220" height="14" rx="7" fill="#EFE7DD"/>
  <rect x="140" y="304" width="140" height="14" rx="7" fill="#EFE7DD"/>
  <rect x="470" y="160" width="220" height="160" rx="18" fill="#F2E3D3"/>
  <rect x="500" y="188" width="160" height="18" rx="9" fill="#D9C7B4"/>
  <rect x="500" y="218" width="130" height="12" rx="6" fill="#E8D6C3"/>
  <rect x="500" y="244" width="120" height="12" rx="6" fill="#E8D6C3"/>
  <rect x="500" y="270" width="140" height="12" rx="6" fill="#E8D6C3"/>
  <rect x="470" y="330" width="220" height="24" rx="12" fill="#C48A5A"/>
  <rect x="95" y="380" width="610" height="20" rx="10" fill="#EFE7DD"/>
  <rect x="120" y="410" width="560" height="10" rx="5" fill="#F2E9DF"/>
  <circle cx="610" cy="130" r="38" fill="#F2E3D3" stroke="#E2D3C3" stroke-width="2"/>
  <path d="M610 112C622 120 628 134 626 150C612 148 598 136 594 122C600 118 606 116 610 112Z" fill="#9FC2A8"/>
  <path d="M610 110C602 118 598 130 600 146C614 144 626 134 630 120C624 116 618 112 610 110Z" fill="#84B096"/>
  <rect x="352" y="180" width="110" height="14" rx="7" fill="#E1D5C7"/>
  <rect x="352" y="206" width="90" height="12" rx="6" fill="#EFE7DD"/>
  <rect x="352" y="232" width="100" height="12" rx="6" fill="#EFE7DD"/>
</svg>
